<?xml version="1.0" encoding="utf-8"?>
<!-- Svg Vector Icons : http://www.onlinewebfonts.com/icon -->
<!DOCTYPE svg PUBLIC "-//W3C//DTD SVG 1.1//EN" "http://www.w3.org/Graphics/SVG/1.1/DTD/svg11.dtd">
<svg version="1.1" xmlns="http://www.w3.org/2000/svg" xmlns:xlink="http://www.w3.org/1999/xlink" x="0px" y="0px" viewBox="0 0 1000 1000" enable-background="new 0 0 1000 1000" xml:space="preserve">
<metadata> Svg Vector Icons : http://www.onlinewebfonts.com/icon </metadata>
<g><g transform="translate(0.000000,511.000000) scale(0.100000,-0.100000)"><path d="M4536.3,4354.3c-1644.9-211.2-3058.6-1387.1-3581-2976.4l-95.6-293.4l-44.5,75.6c-24.4,40-126.7,226.7-226.7,411.2C364,1989.2,297.3,2042.5,155,1931.4c-104.5-82.2-86.7-135.6,289-831.3c191.2-355.7,364.5-662.4,382.3-682.4c33.3-40,124.5-51.1,191.2-26.7c17.8,6.7,264.5,251.2,546.8,544.6c486.8,504.6,511.3,535.7,511.3,615.7c0,108.9-53.3,160-166.7,160c-82.2,0-102.3-15.6-380.1-304.5L1233.1,1100l31.1,106.7c195.6,662.4,660.2,1376,1202.6,1842.8c1451.5,1247,3541,1322.6,5059.2,177.8c686.8-515.7,1195.9-1242.6,1416-2016.1c71.1-257.9,115.6-322.3,217.8-322.3c77.8,0,131.1,35.6,168.9,108.9c28.9,55.6,26.7,80-22.2,249c-469,1631.6-1887.2,2856.4-3587.7,3098.7C5465.4,4381,4787.5,4385.4,4536.3,4354.3z"/><path d="M4716.3,2631.6c-544.6-131.2-866.9-573.5-902.5-1242.6l-15.6-266.7l-215.6-11.1c-193.4-11.1-222.3-17.8-309-77.8c-113.4-80-188.9-184.5-220.1-302.3c-15.6-55.6-22.2-506.8-17.8-1269.3c6.7-1173.7,6.7-1184.8,55.6-1275.9c26.7-51.1,80-117.8,120-151.2c160-135.6,53.3-126.7,1827.2-128.9c1178.1,0,1644.9,6.7,1693.8,26.7c108.9,42.2,206.7,128.9,271.2,240.1l62.2,104.5l6.7,1151.4c6.7,1249.2,2.2,1329.3-106.7,1478.2c-106.7,146.7-202.3,191.2-444.6,204.5l-211.2,11.1l-13.3,233.4c-26.7,426.8-146.7,726.9-389,971.4c-151.2,148.9-377.9,273.4-582.4,315.6C5167.5,2676,4871.9,2671.6,4716.3,2631.6z M5394.3,2267c333.4-104.5,517.9-391.2,560.2-882.5c26.7-277.9,124.5-251.2-913.6-251.2h-898v120c0,184.5,42.2,451.3,93.4,589.1c71.1,184.5,255.6,362.3,442.3,422.3C4876.4,2327,5196.4,2327,5394.3,2267z M6692.4,719.9c22.2-31.1,28.9-273.4,28.9-1213.7c0-1144.8-2.2-1175.9-44.5-1218.1c-44.5-44.5-73.3-44.5-1618.2-44.5c-1387.1,0-1578.2,4.5-1622.7,35.6l-48.9,33.3v1198.1c0,1144.8,2.2,1198.1,42.2,1227c33.3,22.2,355.7,28.9,1636,26.7C6579.1,762.1,6663.5,759.9,6692.4,719.9z"/><path d="M4880.8,230.9C4778.6,177.5,4683,59.7,4654.1-49.2c-15.6-55.6-22.2-217.8-17.8-409c6.7-311.2,8.9-317.9,73.3-411.2c142.3-202.3,382.3-251.2,571.3-117.8c157.8,111.2,173.4,164.5,173.4,597.9c0,424.6-11.1,460.1-166.7,580.2C5183.1,268.7,4994.2,288.7,4880.8,230.9z M5116.4-393.7l6.7-317.9h-68.9h-66.7v306.8c0,168.9,6.7,315.6,15.6,324.5c8.9,8.9,35.6,13.4,62.2,8.9C5107.5-78.1,5109.8-95.9,5116.4-393.7z"/><path d="M9097.6-62.5C9046.4-84.7,7968.3-1065,7943.9-1111.7c-60-113.4,20-244.5,148.9-244.5c77.8,0,91.1,8.9,504.6,382.3c157.8,144.5,291.2,257.8,295.6,253.4c15.6-13.3-126.7-455.7-204.5-635.7c-235.6-551.3-604.6-1064.7-1040.3-1444.8C6550.2-3763.6,5074.2-4063.7,3696-3601.3c-975.8,324.5-1818.3,1049.2-2282.9,1956.1c-148.9,291.2-200.1,420.1-273.4,689.1c-31.1,113.4-71.1,208.9-102.3,240.1c-95.6,95.6-251.2,44.5-286.7-95.6c-28.9-115.6,135.6-577.9,360.1-1009.2c637.9-1235.9,1867.2-2105,3256.5-2302.9c306.7-42.2,906.9-42.2,1222.6,2.2c1284.8,177.8,2420.7,922.5,3114.2,2036.2c211.2,337.9,344.5,653.5,520.1,1215.9c6.7,17.8,13.3,26.7,17.8,22.2c4.4-4.4,80-168.9,166.7-364.5c88.9-195.6,182.3-377.9,206.7-404.6c100-106.7,284.5-37.8,284.5,102.2c0,82.2-562.4,1329.3-629.1,1393.7C9213.1-64.8,9148.7-42.5,9097.6-62.5z"/></g></g>
</svg>