<?xml version="1.0" encoding="utf-8"?>
<!-- Svg Vector Icons : http://www.onlinewebfonts.com/icon -->
<!DOCTYPE svg PUBLIC "-//W3C//DTD SVG 1.1//EN" "http://www.w3.org/Graphics/SVG/1.1/DTD/svg11.dtd">
<svg version="1.1" xmlns="http://www.w3.org/2000/svg" xmlns:xlink="http://www.w3.org/1999/xlink" x="0px" y="0px" viewBox="0 0 1000 1000" enable-background="new 0 0 1000 1000" xml:space="preserve">
<metadata> Svg Vector Icons : http://www.onlinewebfonts.com/icon </metadata>
<g><path d="M259,10.2c-18.1-2.2-36.1,13.6-40.6,36.1l-147,893.6c-4.5,22.7,9.1,45.2,27.2,47.5c18.1,2.2,36.1-13.6,40.7-36.1l147-893.6C290.8,35.1,277.2,12.6,259,10.2z"/><path d="M510.2,46.5c-18.1,0-31.8,11.3-31.8,22.7V275c0,13.6,13.6,22.7,31.8,22.7c18.1,0,31.8-11.3,31.8-22.7V69C541.9,55.4,528.3,46.5,510.2,46.5z"/><path d="M510.2,358.6c-18.1,0-31.8,11.3-31.8,24.9v230.7c0,13.6,13.6,24.9,31.8,24.9c18.1,0,31.8-11.3,31.8-24.9V383.5C541.9,369.9,528.3,358.6,510.2,358.6z"/><path d="M510.2,706.9c-18.1,0-31.8,11.3-31.8,24.9v230.7c0,13.6,13.6,24.9,31.8,24.9c18.1,0,31.8-11.3,31.8-24.9V731.9C541.9,718.3,528.3,706.9,510.2,706.9z"/><path d="M928.6,942.3l-147-893.6C777.1,26,759,10.2,741,12.6c-20.3,4.5-31.8,24.9-27.2,47.5l147,893.6c4.5,22.5,22.7,38.3,40.8,36.1C919.6,987.4,933.2,964.8,928.6,942.3z"/></g>
</svg>